<svg xmlns="http://www.w3.org/2000/svg" width="44.948" height="60" viewBox="0 0 44.948 60">
  <path id="Logo_RS-Coin_white" data-name="Logo RS-Coin white" d="M355.135,19.338h-39.38V36.085h29.963c-2.112,7.487-6.918,10.594-13.036,13.325V41.632H327.04V56.864l5.642,4.86V54.84a23.856,23.856,0,0,0,6.461-2.426l6.658,7.541,4.237-3.741L343.76,49.1a23.94,23.94,0,0,0,7.823-17.726c0-.2,0-.534-.009-.8H321.408V24.991h33.727V60.152L338.006,72.39l-16.6-12.155v-18.6h-5.653V62.824l22.55,16.514,22.4-16v-44Z" transform="translate(-315.755 -19.338)" fill="#fff"/>
</svg>
